<?xml version="1.0" encoding="UTF-8" standalone="no"?>
<svg width="60px" height="60px" viewBox="0 0 60 60" version="1.1" xmlns="http://www.w3.org/2000/svg" xmlns:xlink="http://www.w3.org/1999/xlink" xmlns:sketch="http://www.bohemiancoding.com/sketch/ns">
    <!-- Generator: Sketch 3.2.2 (9983) - http://www.bohemiancoding.com/sketch -->
    <title>Danger</title>
    <desc>Created with Sketch.</desc>
    <defs></defs>
    <g id="stroked" stroke="none" stroke-width="1" fill="none" fill-rule="evenodd" sketch:type="MSPage">
        <g id="Science" sketch:type="MSLayerGroup" transform="translate(-500.000000, -147.000000)" stroke="#e20f00" stroke-width="2" stroke-linecap="round" stroke-linejoin="round">
            <g id="Danger" transform="translate(492.000000, 139.000000)" sketch:type="MSShapeGroup">
                <circle id="Oval-57" cx="38" cy="38" r="28"></circle>
                <path d="M35.2436257,46.6152984 L29.8925254,59.457939 C32.4014148,60.4530519 35.1368341,61 38,61 C40.8631659,61 43.5985852,60.4530519 46.1074746,59.457939 L46.1074746,59.457939 L40.7563743,46.6152984 C39.8807868,46.8658324 38.9560617,47 38,47 C37.0439383,47 36.1192132,46.8658324 35.2436257,46.6152984 Z" id="Oval-59"></path>
                <circle id="Oval-58" cx="38" cy="38" r="4"></circle>
                <path d="M35.2436257,29.6152984 L29.8925254,42.457939 C32.4014148,43.4530519 35.1368341,44 38,44 C40.8631659,44 43.5985852,43.4530519 46.1074746,42.457939 L46.1074746,42.457939 L40.7563743,29.6152984 C39.8807868,29.8658324 38.9560617,30 38,30 C37.0439383,30 36.1192132,29.8658324 35.2436257,29.6152984 Z" id="Oval-62" transform="translate(38.000000, 29.500000) scale(1, -1) translate(-38.000000, -29.500000) "></path>
                <g id="Oval-63-+-Oval-61" transform="translate(38.000000, 38.000000) rotate(-90.000000) translate(-38.000000, -38.000000) translate(16.000000, 0.000000)">
                    <path d="M19.2436257,46.6152984 L13.8925254,59.457939 C16.4014148,60.4530519 19.1368341,61 22,61 C24.8631659,61 27.5985852,60.4530519 30.1074746,59.457939 L30.1074746,59.457939 L24.7563743,46.6152984 C23.8807868,46.8658324 22.9560617,47 22,47 C21.0439383,47 20.1192132,46.8658324 19.2436257,46.6152984 Z" id="Oval-63"></path>
                    <path d="M19.2436257,29.6152984 L13.8925254,42.457939 C16.4014148,43.4530519 19.1368341,44 22,44 C24.8631659,44 27.5985852,43.4530519 30.1074746,42.457939 L30.1074746,42.457939 L24.7563743,29.6152984 C23.8807868,29.8658324 22.9560617,30 22,30 C21.0439383,30 20.1192132,29.8658324 19.2436257,29.6152984 Z" id="Oval-61" transform="translate(22.000000, 29.500000) scale(1, -1) translate(-22.000000, -29.500000) "></path>
                </g>
            </g>
        </g>
    </g>
</svg>